# xmcd
#
# Track frame offsets: 
#        183
#        15708
#        25833
#        43983
#        67683
#        77358
#        90558
#        113583
#        122958
#        138033
#        154158
#        162033
#
# Disc length: 2364 seconds
#
# Revision: 14
# Processed by: cddbd v1.5.2PL0 Copyright (c) Steve Scherf et al.
# Submitted via: ExactAudioCopy v1.0b3
#
DISCID=85093a0c
DTITLE=Vivaldi - The Four Seasons - Op. 8
DYEAR=2001
DGENRE=Classical
TTITLE0=Spring-Allegro
TTITLE1=Spring-Largo E Pianissimo Sempre
TTITLE2=Spring-Allegro
TTITLE3=Summer-Allegro Non Molto
TTITLE4=Summer-Adagio
TTITLE5=Summer-Tempo Impettuoso D'estate
TTITLE6=Autumn-Allegro
TTITLE7=Autumn-Adagio
TTITLE8=Autumn-La Caccia
TTITLE9=Winter-Allegro Non Molto
TTITLE10=Winter-Largo
TTITLE11=Winter-Allegro
EXTD=YEAR: 2001
EXTT0=
EXTT1=
EXTT2=
EXTT3=
EXTT4=
EXTT5=
EXTT6=
EXTT7=
EXTT8=
EXTT9=
EXTT10=
EXTT11=
PLAYORDER=
